<svg width="24" height="25" viewBox="0 0 24 25" fill="none" xmlns="http://www.w3.org/2000/svg">
<g id="More">
<path id="Vector" fill-rule="evenodd" clip-rule="evenodd" d="M10.5 6.5C10.5 6.10218 10.658 5.72064 10.9393 5.43934C11.2206 5.15804 11.6022 5 12 5C12.3978 5 12.7794 5.15804 13.0607 5.43934C13.342 5.72064 13.5 6.10218 13.5 6.5C13.5 6.89782 13.342 7.27936 13.0607 7.56066C12.7794 7.84196 12.3978 8 12 8C11.6022 8 11.2206 7.84196 10.9393 7.56066C10.658 7.27936 10.5 6.89782 10.5 6.5ZM10.5 12.5C10.5 12.1022 10.658 11.7206 10.9393 11.4393C11.2206 11.158 11.6022 11 12 11C12.3978 11 12.7794 11.158 13.0607 11.4393C13.342 11.7206 13.5 12.1022 13.5 12.5C13.5 12.8978 13.342 13.2794 13.0607 13.5607C12.7794 13.842 12.3978 14 12 14C11.6022 14 11.2206 13.842 10.9393 13.5607C10.658 13.2794 10.5 12.8978 10.5 12.5ZM10.5 18.5C10.5 18.1022 10.658 17.7206 10.9393 17.4393C11.2206 17.158 11.6022 17 12 17C12.3978 17 12.7794 17.158 13.0607 17.4393C13.342 17.7206 13.5 18.1022 13.5 18.5C13.5 18.8978 13.342 19.2794 13.0607 19.5607C12.7794 19.842 12.3978 20 12 20C11.6022 20 11.2206 19.842 10.9393 19.5607C10.658 19.2794 10.5 18.8978 10.5 18.5Z" fill="#5D6679"/>
</g>
</svg>
